<mxfile host="Electron" modified="2023-10-20T03:08:44.560Z" agent="Mozilla/5.0 (Windows NT 10.0; Win64; x64) AppleWebKit/537.36 (KHTML, like Gecko) draw.io/21.6.8 Chrome/114.0.5735.289 Electron/25.5.0 Safari/537.36" etag="Tjmff3CHLcNQiR-C6Jf4" version="21.6.8" type="device">
  <diagram name="PÃ¡gina-1" id="YSTc6ScxAmnJDxqD5DRG">
    <mxGraphModel dx="1005" dy="1202" grid="1" gridSize="10" guides="1" tooltips="1" connect="1" arrows="1" fold="1" page="1" pageScale="1" pageWidth="827" pageHeight="1169" math="0" shadow="0">
      <root>
        <mxCell id="0" />
        <mxCell id="1" parent="0" />
        <mxCell id="qw4rjsdQm2Bv6MMbZ20K-1" value="&amp;lt;&amp;lt;Interface&amp;gt;&amp;gt;&lt;br&gt;Peloton" style="swimlane;fontStyle=0;childLayout=stackLayout;horizontal=1;startSize=40;fillColor=none;horizontalStack=0;resizeParent=1;resizeParentMax=0;resizeLast=0;collapsible=1;marginBottom=0;whiteSpace=wrap;html=1;" vertex="1" parent="1">
          <mxGeometry x="280" y="120" width="150" height="66" as="geometry" />
        </mxCell>
        <mxCell id="qw4rjsdQm2Bv6MMbZ20K-4" value="+ avanzar()" style="text;strokeColor=none;fillColor=none;align=left;verticalAlign=top;spacingLeft=4;spacingRight=4;overflow=hidden;rotatable=0;points=[[0,0.5],[1,0.5]];portConstraint=eastwest;whiteSpace=wrap;html=1;" vertex="1" parent="qw4rjsdQm2Bv6MMbZ20K-1">
          <mxGeometry y="40" width="150" height="26" as="geometry" />
        </mxCell>
        <mxCell id="qw4rjsdQm2Bv6MMbZ20K-5" value="&lt;i&gt;Personaje&lt;/i&gt;" style="swimlane;fontStyle=1;align=center;verticalAlign=top;childLayout=stackLayout;horizontal=1;startSize=26;horizontalStack=0;resizeParent=1;resizeParentMax=0;resizeLast=0;collapsible=1;marginBottom=0;whiteSpace=wrap;html=1;" vertex="1" parent="1">
          <mxGeometry x="280" y="280" width="160" height="86" as="geometry" />
        </mxCell>
        <mxCell id="qw4rjsdQm2Bv6MMbZ20K-8" value="+ &lt;u&gt;new(Posicion)&lt;/u&gt;&lt;br&gt;+ getPosicion(): Posicion&lt;br&gt;+ setPosicion(): Posicion" style="text;strokeColor=none;fillColor=none;align=left;verticalAlign=top;spacingLeft=4;spacingRight=4;overflow=hidden;rotatable=0;points=[[0,0.5],[1,0.5]];portConstraint=eastwest;whiteSpace=wrap;html=1;" vertex="1" parent="qw4rjsdQm2Bv6MMbZ20K-5">
          <mxGeometry y="26" width="160" height="60" as="geometry" />
        </mxCell>
        <mxCell id="qw4rjsdQm2Bv6MMbZ20K-13" value="Posicion" style="swimlane;fontStyle=1;align=center;verticalAlign=top;childLayout=stackLayout;horizontal=1;startSize=26;horizontalStack=0;resizeParent=1;resizeParentMax=0;resizeLast=0;collapsible=1;marginBottom=0;whiteSpace=wrap;html=1;" vertex="1" parent="1">
          <mxGeometry y="280" width="160" height="210" as="geometry" />
        </mxCell>
        <mxCell id="qw4rjsdQm2Bv6MMbZ20K-14" value="- x: int&lt;br&gt;- y: int" style="text;strokeColor=none;fillColor=none;align=left;verticalAlign=top;spacingLeft=4;spacingRight=4;overflow=hidden;rotatable=0;points=[[0,0.5],[1,0.5]];portConstraint=eastwest;whiteSpace=wrap;html=1;" vertex="1" parent="qw4rjsdQm2Bv6MMbZ20K-13">
          <mxGeometry y="26" width="160" height="44" as="geometry" />
        </mxCell>
        <mxCell id="qw4rjsdQm2Bv6MMbZ20K-15" value="" style="line;strokeWidth=1;fillColor=none;align=left;verticalAlign=middle;spacingTop=-1;spacingLeft=3;spacingRight=3;rotatable=0;labelPosition=right;points=[];portConstraint=eastwest;strokeColor=inherit;" vertex="1" parent="qw4rjsdQm2Bv6MMbZ20K-13">
          <mxGeometry y="70" width="160" height="8" as="geometry" />
        </mxCell>
        <mxCell id="qw4rjsdQm2Bv6MMbZ20K-16" value="+ &lt;u&gt;new(int, int)&lt;/u&gt;&lt;br&gt;+ clone(): Posicion&lt;br&gt;+ getX(): int&lt;br&gt;+ getY(): int&lt;br&gt;+ setY(): int&lt;br&gt;+ setX(): int&lt;br&gt;+ avanzarEnX(int)&lt;br&gt;+ avanzarEnY(int)" style="text;strokeColor=none;fillColor=none;align=left;verticalAlign=top;spacingLeft=4;spacingRight=4;overflow=hidden;rotatable=0;points=[[0,0.5],[1,0.5]];portConstraint=eastwest;whiteSpace=wrap;html=1;" vertex="1" parent="qw4rjsdQm2Bv6MMbZ20K-13">
          <mxGeometry y="78" width="160" height="132" as="geometry" />
        </mxCell>
        <mxCell id="qw4rjsdQm2Bv6MMbZ20K-17" value="posicion" style="endArrow=block;endFill=1;html=1;align=left;verticalAlign=top;rounded=0;entryX=1;entryY=0.74;entryDx=0;entryDy=0;exitX=0;exitY=0.5;exitDx=0;exitDy=0;entryPerimeter=0;" edge="1" parent="1" source="qw4rjsdQm2Bv6MMbZ20K-8" target="qw4rjsdQm2Bv6MMbZ20K-14">
          <mxGeometry x="0.3235" y="-28" relative="1" as="geometry">
            <mxPoint x="220" y="300" as="sourcePoint" />
            <mxPoint x="390" y="310" as="targetPoint" />
            <mxPoint as="offset" />
          </mxGeometry>
        </mxCell>
        <mxCell id="qw4rjsdQm2Bv6MMbZ20K-20" value="" style="endArrow=block;dashed=1;endFill=0;endSize=12;html=1;rounded=0;exitX=0.5;exitY=0;exitDx=0;exitDy=0;entryX=0.533;entryY=1.154;entryDx=0;entryDy=0;entryPerimeter=0;" edge="1" parent="1" source="qw4rjsdQm2Bv6MMbZ20K-5" target="qw4rjsdQm2Bv6MMbZ20K-4">
          <mxGeometry width="160" relative="1" as="geometry">
            <mxPoint x="250" y="250" as="sourcePoint" />
            <mxPoint x="360" y="180" as="targetPoint" />
          </mxGeometry>
        </mxCell>
        <mxCell id="qw4rjsdQm2Bv6MMbZ20K-22" value="Ingeniero" style="swimlane;fontStyle=1;align=center;verticalAlign=top;childLayout=stackLayout;horizontal=1;startSize=26;horizontalStack=0;resizeParent=1;resizeParentMax=0;resizeLast=0;collapsible=1;marginBottom=0;whiteSpace=wrap;html=1;" vertex="1" parent="1">
          <mxGeometry x="230" y="490" width="160" height="70" as="geometry" />
        </mxCell>
        <mxCell id="qw4rjsdQm2Bv6MMbZ20K-25" value="+ &lt;u&gt;new(Posicion, Mapa)&lt;/u&gt;&lt;br&gt;+ avanzar()" style="text;strokeColor=none;fillColor=none;align=left;verticalAlign=top;spacingLeft=4;spacingRight=4;overflow=hidden;rotatable=0;points=[[0,0.5],[1,0.5]];portConstraint=eastwest;whiteSpace=wrap;html=1;" vertex="1" parent="qw4rjsdQm2Bv6MMbZ20K-22">
          <mxGeometry y="26" width="160" height="44" as="geometry" />
        </mxCell>
        <mxCell id="qw4rjsdQm2Bv6MMbZ20K-26" value="Caballero" style="swimlane;fontStyle=1;align=center;verticalAlign=top;childLayout=stackLayout;horizontal=1;startSize=26;horizontalStack=0;resizeParent=1;resizeParentMax=0;resizeLast=0;collapsible=1;marginBottom=0;whiteSpace=wrap;html=1;" vertex="1" parent="1">
          <mxGeometry x="413" y="490" width="160" height="70" as="geometry" />
        </mxCell>
        <mxCell id="qw4rjsdQm2Bv6MMbZ20K-27" value="+ &lt;u&gt;new(Posicion)&lt;/u&gt;&lt;br&gt;+ avanzar()" style="text;strokeColor=none;fillColor=none;align=left;verticalAlign=top;spacingLeft=4;spacingRight=4;overflow=hidden;rotatable=0;points=[[0,0.5],[1,0.5]];portConstraint=eastwest;whiteSpace=wrap;html=1;" vertex="1" parent="qw4rjsdQm2Bv6MMbZ20K-26">
          <mxGeometry y="26" width="160" height="44" as="geometry" />
        </mxCell>
        <mxCell id="qw4rjsdQm2Bv6MMbZ20K-28" value="Extends" style="endArrow=block;endSize=16;endFill=0;html=1;rounded=0;exitX=0.5;exitY=0;exitDx=0;exitDy=0;" edge="1" parent="1" source="qw4rjsdQm2Bv6MMbZ20K-26">
          <mxGeometry width="160" relative="1" as="geometry">
            <mxPoint x="390" y="380" as="sourcePoint" />
            <mxPoint x="390" y="370" as="targetPoint" />
          </mxGeometry>
        </mxCell>
        <mxCell id="qw4rjsdQm2Bv6MMbZ20K-29" value="Extends" style="endArrow=block;endSize=16;endFill=0;html=1;rounded=0;exitX=0.5;exitY=0;exitDx=0;exitDy=0;entryX=0.315;entryY=1.019;entryDx=0;entryDy=0;entryPerimeter=0;" edge="1" parent="1" source="qw4rjsdQm2Bv6MMbZ20K-22" target="qw4rjsdQm2Bv6MMbZ20K-8">
          <mxGeometry width="160" relative="1" as="geometry">
            <mxPoint x="390" y="380" as="sourcePoint" />
            <mxPoint x="550" y="380" as="targetPoint" />
          </mxGeometry>
        </mxCell>
        <mxCell id="qw4rjsdQm2Bv6MMbZ20K-30" value="&amp;lt;&amp;lt;Interface&amp;gt;&amp;gt;&lt;br&gt;Mapa" style="swimlane;fontStyle=0;childLayout=stackLayout;horizontal=1;startSize=40;fillColor=none;horizontalStack=0;resizeParent=1;resizeParentMax=0;resizeLast=0;collapsible=1;marginBottom=0;whiteSpace=wrap;html=1;" vertex="1" parent="1">
          <mxGeometry x="90" y="660" width="220" height="92" as="geometry" />
        </mxCell>
        <mxCell id="qw4rjsdQm2Bv6MMbZ20K-31" value="+ tieneLosaEn(Posicion) boolean" style="text;strokeColor=none;fillColor=none;align=left;verticalAlign=top;spacingLeft=4;spacingRight=4;overflow=hidden;rotatable=0;points=[[0,0.5],[1,0.5]];portConstraint=eastwest;whiteSpace=wrap;html=1;" vertex="1" parent="qw4rjsdQm2Bv6MMbZ20K-30">
          <mxGeometry y="40" width="220" height="26" as="geometry" />
        </mxCell>
        <mxCell id="qw4rjsdQm2Bv6MMbZ20K-32" value="+ ponerLosaEn(Posicion)" style="text;strokeColor=none;fillColor=none;align=left;verticalAlign=top;spacingLeft=4;spacingRight=4;overflow=hidden;rotatable=0;points=[[0,0.5],[1,0.5]];portConstraint=eastwest;whiteSpace=wrap;html=1;" vertex="1" parent="qw4rjsdQm2Bv6MMbZ20K-30">
          <mxGeometry y="66" width="220" height="26" as="geometry" />
        </mxCell>
        <mxCell id="qw4rjsdQm2Bv6MMbZ20K-34" value="mapa" style="endArrow=block;endFill=1;html=1;align=left;verticalAlign=top;rounded=0;entryX=0.5;entryY=0;entryDx=0;entryDy=0;exitX=0.548;exitY=1.091;exitDx=0;exitDy=0;exitPerimeter=0;" edge="1" parent="1" source="qw4rjsdQm2Bv6MMbZ20K-25" target="qw4rjsdQm2Bv6MMbZ20K-30">
          <mxGeometry x="-0.1306" y="6" relative="1" as="geometry">
            <mxPoint x="120" y="570" as="sourcePoint" />
            <mxPoint x="280" y="570" as="targetPoint" />
            <mxPoint y="-1" as="offset" />
          </mxGeometry>
        </mxCell>
        <mxCell id="qw4rjsdQm2Bv6MMbZ20K-35" value="1" style="edgeLabel;resizable=0;html=1;align=left;verticalAlign=bottom;" connectable="0" vertex="1" parent="qw4rjsdQm2Bv6MMbZ20K-34">
          <mxGeometry x="-1" relative="1" as="geometry">
            <mxPoint x="-118" y="76" as="offset" />
          </mxGeometry>
        </mxCell>
        <mxCell id="qw4rjsdQm2Bv6MMbZ20K-36" value="*" style="edgeLabel;html=1;align=center;verticalAlign=middle;resizable=0;points=[];" vertex="1" connectable="0" parent="qw4rjsdQm2Bv6MMbZ20K-34">
          <mxGeometry x="-0.5491" y="-1" relative="1" as="geometry">
            <mxPoint x="-11" y="-15" as="offset" />
          </mxGeometry>
        </mxCell>
        <mxCell id="qw4rjsdQm2Bv6MMbZ20K-37" value="&lt;i&gt;MovimientoState&lt;/i&gt;" style="swimlane;fontStyle=0;childLayout=stackLayout;horizontal=1;startSize=26;fillColor=none;horizontalStack=0;resizeParent=1;resizeParentMax=0;resizeLast=0;collapsible=1;marginBottom=0;whiteSpace=wrap;html=1;" vertex="1" parent="1">
          <mxGeometry x="480" y="680" width="240" height="78" as="geometry" />
        </mxCell>
        <mxCell id="qw4rjsdQm2Bv6MMbZ20K-38" value="&lt;i&gt;+ posicionAlSerMovida(): Posicion&lt;/i&gt;" style="text;strokeColor=none;fillColor=none;align=left;verticalAlign=top;spacingLeft=4;spacingRight=4;overflow=hidden;rotatable=0;points=[[0,0.5],[1,0.5]];portConstraint=eastwest;whiteSpace=wrap;html=1;" vertex="1" parent="qw4rjsdQm2Bv6MMbZ20K-37">
          <mxGeometry y="26" width="240" height="26" as="geometry" />
        </mxCell>
        <mxCell id="qw4rjsdQm2Bv6MMbZ20K-39" value="&lt;i&gt;+ getProximoMovimiento(): MovimientoState&lt;/i&gt;" style="text;strokeColor=none;fillColor=none;align=left;verticalAlign=top;spacingLeft=4;spacingRight=4;overflow=hidden;rotatable=0;points=[[0,0.5],[1,0.5]];portConstraint=eastwest;whiteSpace=wrap;html=1;" vertex="1" parent="qw4rjsdQm2Bv6MMbZ20K-37">
          <mxGeometry y="52" width="240" height="26" as="geometry" />
        </mxCell>
        <mxCell id="qw4rjsdQm2Bv6MMbZ20K-41" value="movimiento" style="endArrow=block;endFill=1;html=1;align=left;verticalAlign=top;rounded=0;entryX=0.5;entryY=0;entryDx=0;entryDy=0;exitX=0.5;exitY=1;exitDx=0;exitDy=0;" edge="1" parent="1" source="qw4rjsdQm2Bv6MMbZ20K-26" target="qw4rjsdQm2Bv6MMbZ20K-37">
          <mxGeometry x="-0.1567" y="16" relative="1" as="geometry">
            <mxPoint x="430" y="660" as="sourcePoint" />
            <mxPoint x="590" y="660" as="targetPoint" />
            <mxPoint as="offset" />
          </mxGeometry>
        </mxCell>
        <mxCell id="qw4rjsdQm2Bv6MMbZ20K-43" value="MovimientoZigZagIzquierdo" style="swimlane;fontStyle=0;childLayout=stackLayout;horizontal=1;startSize=26;fillColor=none;horizontalStack=0;resizeParent=1;resizeParentMax=0;resizeLast=0;collapsible=1;marginBottom=0;whiteSpace=wrap;html=1;" vertex="1" parent="1">
          <mxGeometry x="350" y="830" width="240" height="78" as="geometry" />
        </mxCell>
        <mxCell id="qw4rjsdQm2Bv6MMbZ20K-44" value="+ posicionAlSerMovida(): Posicion" style="text;strokeColor=none;fillColor=none;align=left;verticalAlign=top;spacingLeft=4;spacingRight=4;overflow=hidden;rotatable=0;points=[[0,0.5],[1,0.5]];portConstraint=eastwest;whiteSpace=wrap;html=1;" vertex="1" parent="qw4rjsdQm2Bv6MMbZ20K-43">
          <mxGeometry y="26" width="240" height="26" as="geometry" />
        </mxCell>
        <mxCell id="qw4rjsdQm2Bv6MMbZ20K-45" value="+ getProximoMovimiento(): MovimientoState" style="text;strokeColor=none;fillColor=none;align=left;verticalAlign=top;spacingLeft=4;spacingRight=4;overflow=hidden;rotatable=0;points=[[0,0.5],[1,0.5]];portConstraint=eastwest;whiteSpace=wrap;html=1;" vertex="1" parent="qw4rjsdQm2Bv6MMbZ20K-43">
          <mxGeometry y="52" width="240" height="26" as="geometry" />
        </mxCell>
        <mxCell id="qw4rjsdQm2Bv6MMbZ20K-46" value="MovimientoZigZagDerecho" style="swimlane;fontStyle=0;childLayout=stackLayout;horizontal=1;startSize=26;fillColor=none;horizontalStack=0;resizeParent=1;resizeParentMax=0;resizeLast=0;collapsible=1;marginBottom=0;whiteSpace=wrap;html=1;" vertex="1" parent="1">
          <mxGeometry x="620" y="830" width="240" height="78" as="geometry" />
        </mxCell>
        <mxCell id="qw4rjsdQm2Bv6MMbZ20K-47" value="+ posicionAlSerMovida(): Posicion" style="text;strokeColor=none;fillColor=none;align=left;verticalAlign=top;spacingLeft=4;spacingRight=4;overflow=hidden;rotatable=0;points=[[0,0.5],[1,0.5]];portConstraint=eastwest;whiteSpace=wrap;html=1;" vertex="1" parent="qw4rjsdQm2Bv6MMbZ20K-46">
          <mxGeometry y="26" width="240" height="26" as="geometry" />
        </mxCell>
        <mxCell id="qw4rjsdQm2Bv6MMbZ20K-48" value="+ getProximoMovimiento(): MovimientoState" style="text;strokeColor=none;fillColor=none;align=left;verticalAlign=top;spacingLeft=4;spacingRight=4;overflow=hidden;rotatable=0;points=[[0,0.5],[1,0.5]];portConstraint=eastwest;whiteSpace=wrap;html=1;" vertex="1" parent="qw4rjsdQm2Bv6MMbZ20K-46">
          <mxGeometry y="52" width="240" height="26" as="geometry" />
        </mxCell>
        <mxCell id="qw4rjsdQm2Bv6MMbZ20K-53" value="Extends" style="endArrow=block;endSize=16;endFill=0;html=1;rounded=0;exitX=0.5;exitY=0;exitDx=0;exitDy=0;entryX=0.392;entryY=0.988;entryDx=0;entryDy=0;entryPerimeter=0;" edge="1" parent="1" source="qw4rjsdQm2Bv6MMbZ20K-43" target="qw4rjsdQm2Bv6MMbZ20K-39">
          <mxGeometry width="160" relative="1" as="geometry">
            <mxPoint x="580" y="720" as="sourcePoint" />
            <mxPoint x="740" y="720" as="targetPoint" />
          </mxGeometry>
        </mxCell>
        <mxCell id="qw4rjsdQm2Bv6MMbZ20K-54" value="Extends" style="endArrow=block;endSize=16;endFill=0;html=1;rounded=0;exitX=0.5;exitY=0;exitDx=0;exitDy=0;entryX=0.486;entryY=1.101;entryDx=0;entryDy=0;entryPerimeter=0;" edge="1" parent="1" source="qw4rjsdQm2Bv6MMbZ20K-46" target="qw4rjsdQm2Bv6MMbZ20K-39">
          <mxGeometry width="160" relative="1" as="geometry">
            <mxPoint x="480" y="840" as="sourcePoint" />
            <mxPoint x="584" y="768" as="targetPoint" />
          </mxGeometry>
        </mxCell>
        <mxCell id="qw4rjsdQm2Bv6MMbZ20K-55" value="Ejercito" style="swimlane;fontStyle=1;align=center;verticalAlign=top;childLayout=stackLayout;horizontal=1;startSize=26;horizontalStack=0;resizeParent=1;resizeParentMax=0;resizeLast=0;collapsible=1;marginBottom=0;whiteSpace=wrap;html=1;" vertex="1" parent="1">
          <mxGeometry x="590" y="280" width="160" height="66" as="geometry" />
        </mxCell>
        <mxCell id="qw4rjsdQm2Bv6MMbZ20K-58" value="+ &lt;u&gt;new(Personaje, Ejercito&lt;/u&gt;)&lt;br&gt;+ avanzar()" style="text;strokeColor=none;fillColor=none;align=left;verticalAlign=top;spacingLeft=4;spacingRight=4;overflow=hidden;rotatable=0;points=[[0,0.5],[1,0.5]];portConstraint=eastwest;whiteSpace=wrap;html=1;" vertex="1" parent="qw4rjsdQm2Bv6MMbZ20K-55">
          <mxGeometry y="26" width="160" height="40" as="geometry" />
        </mxCell>
        <mxCell id="qw4rjsdQm2Bv6MMbZ20K-59" value="" style="endArrow=block;dashed=1;endFill=0;endSize=12;html=1;rounded=0;exitX=0.5;exitY=0;exitDx=0;exitDy=0;entryX=1.02;entryY=-0.051;entryDx=0;entryDy=0;entryPerimeter=0;" edge="1" parent="1" source="qw4rjsdQm2Bv6MMbZ20K-55" target="qw4rjsdQm2Bv6MMbZ20K-4">
          <mxGeometry width="160" relative="1" as="geometry">
            <mxPoint x="370" y="290" as="sourcePoint" />
            <mxPoint x="370" y="200" as="targetPoint" />
          </mxGeometry>
        </mxCell>
        <mxCell id="qw4rjsdQm2Bv6MMbZ20K-60" value="peloton" style="endArrow=block;endFill=1;html=1;align=left;verticalAlign=top;rounded=0;entryX=0.8;entryY=1.154;entryDx=0;entryDy=0;entryPerimeter=0;exitX=0;exitY=0;exitDx=0;exitDy=0;" edge="1" parent="1" source="qw4rjsdQm2Bv6MMbZ20K-55" target="qw4rjsdQm2Bv6MMbZ20K-4">
          <mxGeometry x="0.1448" y="-20" relative="1" as="geometry">
            <mxPoint x="490" y="300" as="sourcePoint" />
            <mxPoint x="390" y="190" as="targetPoint" />
            <mxPoint y="-1" as="offset" />
          </mxGeometry>
        </mxCell>
        <mxCell id="qw4rjsdQm2Bv6MMbZ20K-62" value="aliado" style="endArrow=block;endFill=1;html=1;align=left;verticalAlign=top;rounded=0;entryX=1;entryY=0.389;entryDx=0;entryDy=0;entryPerimeter=0;exitX=-0.021;exitY=0.125;exitDx=0;exitDy=0;exitPerimeter=0;" edge="1" parent="1" source="qw4rjsdQm2Bv6MMbZ20K-58" target="qw4rjsdQm2Bv6MMbZ20K-8">
          <mxGeometry x="0.191" y="6" relative="1" as="geometry">
            <mxPoint x="490" y="300" as="sourcePoint" />
            <mxPoint x="650" y="300" as="targetPoint" />
            <Array as="points">
              <mxPoint x="500" y="320" />
            </Array>
            <mxPoint as="offset" />
          </mxGeometry>
        </mxCell>
      </root>
    </mxGraphModel>
  </diagram>
</mxfile>
